{"glyphs":{"0":{"ha":815,"x_min":0,"x_max":0,"o":"m 404 970 b 21 475 161 970 21 826 b 404 -28 21 124 161 -28 b 793 478 646 -28 793 131 b 404 970 793 826 646 970 z m 570 471 b 407 309 570 381 497 309 b 250 429 332 309 269 360 b 244 471 246 442 244 457 b 250 514 244 486 246 500 b 407 634 269 583 332 634 b 570 472 497 634 569 561 z "},"1":{"ha":551,"x_min":0,"x_max":0,"o":"m 517 0 l 517 930 l 322 930 l 322 0 z m 243 719 b 243 908 295 771 295 856 b 54 908 191 960 106 960 b 54 719 2 856 2 771 b 243 719 106 667 191 667 z "},"2":{"ha":654,"x_min":0,"x_max":0,"o":"m 235 156 b 273 237 237 180 250 207 b 362 320 297 267 327 295 b 486 416 411 355 452 387 b 568 500 520 444 548 472 b 613 620 589 528 615 582 l 443 620 b 416 570 438 604 429 587 b 364 518 403 554 386 536 b 282 456 342 499 315 479 b 140 337 223 413 175 374 b 56 228 104 300 76 264 b 16 119 36 192 23 156 b 6 0 9 82 6 42 l 630 0 l 630 156 l 235 156 z m 286 676 b 420 809 360 676 420 735 b 286 943 420 883 360 943 b 153 809 213 943 153 883 b 286 676 153 735 213 676 z "},"3":{"ha":657,"x_min":0,"x_max":0,"o":"m 613 412 b 511 496 589 450 555 477 b 592 619 547 517 597 560 l 439 619 b 411 579 434 604 424 591 b 354 552 398 568 379 559 b 260 541 330 545 298 541 l 260 416 b 418 384 334 416 387 405 b 464 272 449 363 464 325 b 427 160 464 223 452 186 b 333 120 402 133 371 120 b 231 157 288 120 254 132 b 196 273 208 181 196 220 l 24 273 b 102 53 24 180 50 106 b 325 -28 155 -1 229 -28 b 456 -7 373 -28 416 -21 b 558 52 495 7 530 26 b 624 145 587 77 609 108 b 648 269 640 182 648 223 b 613 412 648 327 636 375 z m 336 680 b 469 813 409 680 469 740 b 336 947 469 887 409 947 b 202 813 262 947 202 887 b 336 680 202 740 262 680 z "},"4":{"ha":693,"x_min":0,"x_max":0,"o":"m 565 346 l 565 724 l 387 675 l 387 346 l 195 346 l 387 675 l 238 730 l 19 362 l 19 204 l 382 204 l 382 0 l 565 0 l 565 204 l 671 204 l 671 346 z m 402 730 b 512 839 463 730 512 779 b 402 948 512 899 463 948 b 293 839 342 948 293 899 b 402 730 293 779 342 730 z "},"5":{"ha":663,"x_min":0,"x_max":0,"o":"m 616 438 b 560 528 602 474 584 504 b 476 584 537 553 509 571 b 372 604 443 597 408 604 b 273 590 338 604 305 599 b 189 539 241 582 213 564 l 198 784 l 602 784 l 602 936 l 37 936 l 18 380 l 203 380 b 253 439 216 406 233 425 b 332 459 273 452 299 459 b 426 419 374 459 405 445 b 457 307 447 392 457 355 l 637 307 b 616 438 641 357 630 402 z m 328 -14 b 461 119 402 -14 461 45 b 328 253 461 193 402 253 b 194 119 254 253 194 193 b 328 -14 194 45 254 -14 z "},"6":{"ha":765,"x_min":0,"x_max":0,"o":"m 444 608 b 226 522 338 608 276 572 b 407 814 239 720 294 814 b 520 728 476 814 515 785 l 727 728 b 417 959 704 877 589 959 b 21 436 152 959 21 806 b 395 -27 21 131 144 -27 b 746 302 605 -27 746 113 b 444 608 746 494 613 608 z m 541 293 b 541 291 541 292 541 291 b 541 288 541 290 541 289 b 385 137 538 204 469 137 b 230 279 303 137 237 200 b 229 294 230 284 229 289 b 385 448 230 379 300 448 b 541 293 471 448 540 379 z "},"7":{"ha":882,"x_min":0,"x_max":0,"o":"m 157 1 l 365 1 b 618 657 379 248 435 442 l 519 773 b 157 1 301 547 180 269 z m 15 935 l 15 773 l 519 773 l 606 935 z m 752 670 b 862 823 825 682 874 750 b 709 934 850 896 782 945 b 599 780 636 922 587 853 b 752 670 611 708 679 658 z "},"8":{"ha":761,"x_min":0,"x_max":0,"o":"m 588 516 b 697 718 669 552 697 637 b 382 970 697 861 589 970 b 61 713 198 970 61 861 b 180 507 61 634 93 547 b 15 269 71 461 15 378 b 382 -28 15 105 139 -28 b 745 278 626 -28 745 100 b 588 516 745 382 683 478 z m 252 695 b 252 698 252 696 252 697 b 380 809 253 760 310 809 b 508 698 450 809 507 760 b 508 695 508 697 508 696 l 508 694 b 380 581 508 632 451 581 b 252 694 309 581 252 632 z m 532 265 b 382 140 527 195 462 140 b 231 266 301 140 235 196 b 231 267 231 266 231 267 b 231 275 231 269 231 272 b 231 275 231 275 231 275 b 231 275 231 275 231 275 b 231 275 231 275 231 275 b 382 407 232 348 299 407 b 532 275 464 407 531 348 b 532 275 532 275 532 275 b 532 275 532 275 532 275 b 532 275 532 275 532 275 b 532 266 532 272 532 269 b 532 265 532 266 532 266 z "},"9":{"ha":763,"x_min":0,"x_max":0,"o":"m 369 970 b 18 637 159 970 18 828 b 319 327 18 442 151 327 b 537 414 425 327 487 364 b 356 119 524 214 469 119 b 244 206 287 119 248 148 l 37 206 b 346 -28 60 55 175 -28 b 741 502 610 -28 741 127 b 369 970 741 810 618 970 z m 440 522 b 440 522 440 522 440 522 b 369 503 419 510 395 503 b 226 643 291 503 228 566 b 226 647 226 644 226 645 b 226 650 226 648 226 649 b 369 790 228 728 291 790 b 440 771 395 790 419 783 l 440 771 b 512 647 483 746 512 700 b 440 522 512 594 483 547 z "},"\u0000":{"ha":0,"x_min":0,"x_max":0,"o":""},"\n":{"ha":0,"x_min":0,"x_max":0,"o":""},"\r":{"ha":0,"x_min":0,"x_max":0,"o":""}," ":{"ha":415,"x_min":0,"x_max":0,"o":""},"!":{"ha":246,"x_min":0,"x_max":0,"o":"m 123 295 b 209 242 159 295 191 274 l 209 946 l 36 946 l 36 243 b 123 295 54 274 86 295 z m 122 -1 b 214 91 173 -1 214 40 b 122 183 214 142 173 183 b 31 91 72 183 31 142 b 122 -1 31 40 72 -1 z "},"\"":{"ha":518,"x_min":0,"x_max":0,"o":"m 506 963 l 505 984 l 485 983 l 366 982 l 345 982 l 345 961 b 209 577 350 820 300 680 l 196 562 l 210 548 l 255 507 l 297 467 l 313 452 l 327 468 b 463 699 387 536 433 613 b 506 963 494 784 509 873 z m 302 965 l 300 983 l 281 983 l 234 983 l 164 984 l 141 984 l 144 961 b 32 651 156 844 116 733 l 15 635 l 33 620 l 79 582 l 123 546 l 138 534 l 151 547 b 275 738 207 602 249 666 b 302 965 301 810 310 886 z "},"#":{"ha":743,"x_min":0,"x_max":0,"o":"m 723 459 l 723 601 l 605 601 l 667 821 l 525 821 l 463 601 l 373 601 l 435 821 l 293 821 l 231 601 l 19 601 l 19 459 l 191 459 l 164 362 l 19 362 l 19 220 l 124 220 l 62 0 l 204 0 l 266 220 l 355 220 l 293 0 l 435 0 l 497 220 l 723 220 l 723 362 l 538 362 l 565 459 z m 364 330 b 284 411 320 330 284 366 b 364 491 284 455 320 491 b 445 411 409 491 445 455 b 364 330 445 366 409 330 z "},"$":{"ha":761,"x_min":0,"x_max":0,"o":"m 672 425 b 431 539 618 476 539 513 l 431 756 b 517 634 505 748 517 720 l 517 622 l 704 622 l 704 634 b 431 945 704 764 655 918 l 431 1016 l 335 1016 l 335 949 b 19 662 151 940 19 822 b 335 365 19 472 168 405 l 335 155 b 254 192 300 161 272 174 b 220 299 217 229 220 299 l 220 312 l 38 312 l 37 301 b 120 64 35 269 32 155 b 335 -26 174 9 238 -19 l 335 -94 l 431 -94 l 431 -26 b 747 255 663 -11 747 126 b 672 425 747 328 727 373 z m 335 562 b 220 662 220 597 220 630 b 335 758 220 736 292 754 z m 431 153 l 431 341 b 555 236 555 301 555 253 b 431 153 555 179 494 159 z "},"%":{"ha":958,"x_min":0,"x_max":0,"o":"m 889 811 l 739 935 l 69 124 l 219 0 z m 699 14 b 775 199 771 44 805 127 b 590 276 745 271 662 306 b 513 91 518 246 483 163 b 699 14 543 18 626 -16 z m 335 654 b 477 795 414 654 477 717 b 335 937 477 874 414 937 b 194 795 257 937 194 874 b 335 654 194 717 257 654 z "},"&":{"ha":926,"x_min":0,"x_max":0,"o":"m 329 680 b 452 823 402 685 458 749 b 310 946 447 896 383 952 b 186 804 236 941 181 877 b 329 680 191 730 255 675 z m 926 -2 b 650 161 838 48 728 104 b 809 592 774 343 809 592 l 675 592 b 567 273 654 455 620 343 b 546 247 560 264 553 256 b 517 273 536 256 527 265 b 378 416 464 323 417 372 b 244 579 316 484 271 542 b 216 619 226 604 217 619 b 216 619 216 619 216 619 l 63 619 b 142 497 89 576 115 535 b 143 495 142 497 142 496 b 42 412 99 477 65 449 b 7 269 19 375 7 327 b 30 145 7 223 15 182 b 97 52 46 108 68 77 b 199 -7 125 27 159 7 b 330 -28 238 -21 282 -28 b 337 -28 332 -28 335 -28 b 454 -9 380 -27 419 -21 b 541 42 487 3 517 20 b 571 67 552 50 562 58 b 687 -2 642 19 687 -2 z m 337 121 b 337 121 337 121 337 121 b 322 120 332 120 327 120 b 228 160 284 120 253 133 b 191 272 203 186 191 223 b 231 380 191 322 204 358 b 435 172 302 295 372 226 b 448 161 440 168 444 164 b 337 121 385 121 340 121 z "},"'":{"ha":375,"x_min":0,"x_max":0,"o":"m 353 971 l 295 984 l 238 996 l 212 1001 l 210 975 b 38 697 197 859 136 760 l 15 683 l 32 662 l 68 617 l 105 571 l 118 554 l 136 566 b 298 728 203 608 257 663 b 371 945 338 794 363 867 l 374 967 z "},"(":{"ha":307,"x_min":0,"x_max":0,"o":"m 287 880 b 138 880 237 880 188 880 b 138 -54 -16 588 -16 238 b 287 -54 188 -54 237 -54 b 287 880 132 238 132 588 z "},")":{"ha":307,"x_min":0,"x_max":0,"o":"m 19 -54 b 168 -54 69 -54 118 -54 b 168 880 323 238 323 588 b 19 880 118 880 69 880 b 19 -54 174 588 174 238 z "},"*":{"ha":404,"x_min":0,"x_max":0,"o":"m 283 742 l 393 788 l 374 846 l 267 821 b 242 841 260 829 251 836 l 232 951 l 170 951 l 161 841 b 135 820 151 836 142 829 l 29 846 l 10 788 l 120 742 b 126 726 121 736 123 731 l 61 617 l 112 581 l 195 681 b 201 681 197 681 199 681 b 209 681 204 681 206 681 l 291 581 l 342 617 l 276 725 b 283 742 279 731 282 736 z "},"+":{"ha":560,"x_min":0,"x_max":0,"o":"m 358 521 l 358 714 l 200 714 l 200 521 l 10 521 l 10 363 l 200 363 l 200 171 l 358 171 l 358 363 l 549 363 l 549 521 z "},",":{"ha":226,"x_min":0,"x_max":0,"o":"m 98 216 b -85 -79 85 93 19 -13 b -12 -171 -60 -110 -36 -140 b 213 191 116 -89 197 41 b 98 216 174 200 136 208 z "},"-":{"ha":442,"x_min":0,"x_max":0,"o":"m 427 362 l 427 521 l 14 521 l 14 362 z "},".":{"ha":210,"x_min":0,"x_max":0,"o":"m 104 -1 b 196 91 155 -1 196 40 b 104 183 196 142 155 183 b 13 91 54 183 13 142 b 104 -1 13 40 54 -1 z "},"/":{"ha":596,"x_min":0,"x_max":0,"o":"m 587 858 l 411 941 l 11 83 l 187 1 z "},":":{"ha":221,"x_min":0,"x_max":0,"o":"m 110 0 b 202 92 161 0 202 41 b 110 184 202 143 161 184 b 18 92 59 184 18 143 b 110 0 18 41 59 0 z m 110 251 b 202 343 161 251 202 292 b 110 435 202 394 161 435 b 18 343 59 435 18 394 b 110 251 18 292 59 251 z "},";":{"ha":228,"x_min":0,"x_max":0,"o":"m 121 249 b 213 341 172 249 213 291 b 121 433 213 392 172 433 b 29 341 70 433 29 392 b 121 249 29 291 70 249 z m -119 -139 b -46 -231 -95 -170 -71 -200 b 178 132 81 -149 162 -19 b 63 156 140 140 101 148 b -119 -139 50 34 -15 -73 z "},"<":{"ha":438,"x_min":0,"x_max":0,"o":"m 425 568 l 321 688 l 130 521 l 12 418 l 10 416 l 10 415 l 12 413 l 130 310 l 321 143 l 425 263 l 250 415 z "},"=":{"ha":601,"x_min":0,"x_max":0,"o":"m 582 446 l 582 604 l 19 604 l 19 446 z m 582 200 l 582 358 l 19 358 l 19 200 z "},">":{"ha":438,"x_min":0,"x_max":0,"o":"m 424 418 l 306 521 l 115 688 l 11 568 l 186 415 l 11 263 l 115 143 l 306 310 l 424 413 l 426 415 l 426 416 z "},"?":{"ha":576,"x_min":0,"x_max":0,"o":"m 487 864 b 301 939 442 913 377 939 b 101 865 224 939 153 912 b 17 673 47 816 17 748 b 27 596 17 646 20 621 l 33 574 l 183 623 l 178 643 b 175 673 176 653 175 663 b 295 802 175 745 227 802 l 295 802 b 385 774 335 803 365 794 b 417 682 406 754 417 722 b 271 558 417 620 372 558 l 263 558 l 171 471 l 238 383 l 206 322 l 206 178 l 343 178 l 343 273 l 417 386 l 366 444 b 492 516 414 454 458 479 b 555 673 532 560 555 617 b 487 864 555 750 532 816 z m 276 137 b 199 60 234 137 199 103 b 276 -17 199 18 234 -17 b 353 60 319 -17 353 18 b 276 137 353 103 319 137 z "},"@":{"ha":724,"x_min":0,"x_max":0,"o":"m 372 676 b 121 572 277 676 188 639 b 17 321 54 505 17 416 l 17 293 b 113 78 17 208 51 131 b 337 0 171 28 251 0 l 417 0 l 417 103 l 337 103 b 120 293 232 103 120 163 l 120 321 b 372 573 120 460 233 573 b 602 343 499 573 602 469 l 602 220 b 577 194 602 206 591 194 b 552 220 563 194 552 206 l 552 332 b 551 344 552 336 552 340 b 358 526 545 445 461 526 b 163 332 251 526 163 439 b 358 138 163 225 251 138 b 460 167 395 138 430 149 b 577 91 480 122 525 91 b 705 220 648 91 705 149 l 705 342 b 372 676 705 526 556 676 z m 358 241 b 267 332 307 241 267 282 b 358 423 267 382 307 423 b 448 332 408 423 448 382 b 358 241 448 282 408 241 z "},"A":{"ha":869,"x_min":0,"x_max":0,"o":"m 552 935 l 434 934 l 317 935 l -17 1 l 190 1 l 434 745 l 679 1 l 885 1 z m 458 176 b 534 298 513 189 546 244 b 411 374 521 353 466 387 b 335 252 356 361 322 306 b 458 176 348 197 403 163 z "},"B":{"ha":728,"x_min":0,"x_max":0,"o":"m 554 498 b 667 700 621 539 667 614 b 440 933 667 829 565 933 l 35 933 l 35 -1 l 474 -1 b 722 256 611 -1 722 114 b 554 498 722 368 652 464 z m 361 801 b 480 682 427 801 480 747 b 361 562 480 616 427 562 b 242 682 295 562 242 616 b 361 801 242 747 295 801 z m 395 98 b 242 251 310 98 242 167 b 395 404 242 336 310 404 b 548 251 479 404 548 336 b 395 98 548 167 479 98 z "},"C":{"ha":918,"x_min":0,"x_max":0,"o":"m 734 318 b 689 260 721 297 706 278 b 487 177 635 206 564 177 b 286 260 411 177 340 206 b 203 462 232 314 203 386 b 286 663 203 538 232 609 b 487 747 340 717 411 747 b 689 663 564 747 635 717 b 705 646 694 658 700 652 l 904 706 b 487 945 820 849 665 945 b 4 462 221 945 4 729 b 487 -22 4 195 221 -22 b 926 259 682 -22 850 93 z "},"D":{"ha":753,"x_min":0,"x_max":0,"o":"m 713 667 b 624 810 691 723 662 770 b 487 900 586 849 540 879 b 313 932 434 921 376 932 l 35 932 l 35 0 l 342 0 b 507 34 402 0 457 11 b 634 131 556 57 599 89 b 716 281 670 173 697 223 b 745 476 736 340 745 405 b 713 667 745 547 734 611 z m 409 313 b 257 466 325 313 257 381 b 409 619 257 550 325 619 b 562 466 494 619 562 550 b 409 313 562 381 494 313 z "},"E":{"ha":668,"x_min":0,"x_max":0,"o":"m 521 428 b 454 569 541 485 512 549 b 313 502 397 590 334 560 b 380 362 293 445 323 382 b 521 428 437 341 500 371 z m 663 932 l 35 932 l 35 0 l 663 0 l 663 162 l 222 162 l 222 769 l 663 769 z "},"F":{"ha":664,"x_min":0,"x_max":0,"o":"m 229 0 l 229 931 l 35 931 l 35 0 z m 386 486 b 296 395 336 486 296 445 b 386 305 296 345 336 305 b 477 395 436 305 477 345 b 386 486 477 445 436 486 z m 621 661 b 621 913 691 730 691 843 b 370 913 552 982 439 982 b 370 661 300 843 300 730 b 621 661 439 591 552 591 z "},"G":{"ha":890,"x_min":0,"x_max":0,"o":"m 673 275 l 673 275 b 651 214 671 253 663 233 b 605 165 639 195 624 179 b 540 131 586 151 565 140 b 464 119 515 123 490 119 b 276 206 386 119 323 148 b 205 453 229 264 205 342 b 276 700 205 564 229 642 b 464 788 323 759 386 788 b 540 775 490 788 515 784 b 605 742 565 767 586 756 b 651 692 624 728 639 711 b 673 631 663 673 671 653 l 869 631 b 831 759 865 678 852 720 b 744 859 809 798 780 831 b 618 925 708 887 666 909 b 464 948 570 941 519 948 b 265 910 388 948 322 936 b 123 805 209 884 161 849 b 36 647 85 760 56 707 b 7 453 17 587 7 521 b 36 259 7 385 17 319 b 123 102 56 199 85 146 b 265 -4 161 57 209 22 b 464 -42 322 -29 388 -42 b 618 -18 519 -42 570 -34 b 744 47 666 -3 708 19 b 750 52 746 49 748 51 l 751 -3 l 869 -4 l 869 453 l 673 453 z m 593 291 b 593 430 631 329 631 392 b 453 430 554 468 492 468 b 453 291 415 392 415 329 b 593 291 492 252 554 252 z "},"H":{"ha":825,"x_min":0,"x_max":0,"o":"m 230 0 l 230 931 l 35 931 l 35 0 z m 789 0 l 789 931 l 594 931 l 594 0 z m 412 406 b 526 520 475 406 526 457 b 412 634 526 583 475 634 b 298 520 349 634 298 583 b 412 406 298 457 349 406 z "},"I":{"ha":265,"x_min":0,"x_max":0,"o":"m 229 0 l 229 931 l 35 931 l 35 0 z "},"J":{"ha":597,"x_min":0,"x_max":0,"o":"m 377 936 l 377 289 b 356 181 377 238 370 202 b 269 149 342 159 312 150 b 185 274 219 147 189 173 l -12 274 b 61 64 -13 215 12 111 b 269 -6 111 17 180 -6 b 492 70 367 -6 442 19 b 568 271 543 121 568 188 l 568 936 z "},"K":{"ha":842,"x_min":0,"x_max":0,"o":"m 226 0 l 226 925 l 35 925 l 35 0 z m 383 433 b 399 522 412 453 419 493 b 310 538 379 551 339 558 b 294 449 281 518 274 478 b 383 433 314 421 354 413 z m 646 925 l 402 615 l 498 477 l 859 925 z m 390 344 l 603 0 l 839 0 l 498 477 z "},"L":{"ha":551,"x_min":0,"x_max":0,"o":"m 230 171 l 230 935 l 35 935 l 35 1 l 564 1 l 564 171 z "},"M":{"ha":975,"x_min":0,"x_max":0,"o":"m 657 933 l 489 248 l 627 136 l 758 612 l 758 -1 l 939 -1 l 939 933 z m 498 45 b 561 127 538 50 566 87 b 479 189 556 166 519 194 b 417 108 440 184 412 148 b 498 45 422 68 458 40 z m 321 933 l 38 933 l 33 -1 l 215 -1 l 218 623 l 351 136 l 489 248 z "},"N":{"ha":835,"x_min":0,"x_max":0,"o":"m 617 939 l 617 341 l 217 937 l 216 939 l 35 939 l 35 1 l 217 1 l 217 630 l 617 1 l 617 1 l 799 1 l 799 939 z "},"O":{"ha":997,"x_min":0,"x_max":0,"o":"m 498 968 b 4 474 225 968 4 747 b 498 -20 4 201 225 -20 b 993 474 771 -20 993 201 b 498 968 993 747 771 968 z m 498 171 b 196 474 331 171 196 307 b 498 777 196 641 331 777 b 801 474 665 777 801 641 b 498 171 801 307 665 171 z "},"P":{"ha":647,"x_min":0,"x_max":0,"o":"m 535 887 b 381 938 489 921 435 938 l 35 938 l 35 0 l 231 0 l 231 342 l 388 342 b 537 391 441 342 492 358 b 648 638 592 432 648 506 b 535 887 648 770 591 845 z m 351 521 b 231 640 285 521 231 574 b 351 760 231 706 285 760 b 470 640 417 760 470 706 b 351 521 470 574 417 521 z "},"Q":{"ha":997,"x_min":0,"x_max":0,"o":"m 498 953 b 4 459 225 953 4 732 b 498 -36 4 186 225 -36 b 993 459 771 -36 993 186 b 498 953 993 732 771 953 z m 498 156 b 196 459 331 156 196 292 b 498 761 196 626 331 761 b 801 459 665 761 801 626 b 498 156 801 292 665 156 z m 609 -226 b 517 -98 618 -165 577 -108 b 389 -190 456 -88 399 -130 b 481 -318 379 -251 420 -308 b 609 -226 542 -328 599 -287 z "},"R":{"ha":876,"x_min":0,"x_max":0,"o":"m 230 -6 l 230 928 l 35 928 l 35 -6 z m 568 449 l 344 449 l 676 0 l 900 0 z m 665 578 b 665 889 751 664 751 803 b 354 889 579 974 440 974 b 354 578 269 803 269 664 b 665 578 440 492 579 492 z "},"S":{"ha":722,"x_min":0,"x_max":0,"o":"m 644 432 b 390 550 588 486 505 525 b 206 669 206 592 206 631 b 339 766 206 759 307 766 b 493 641 474 766 493 750 l 493 629 l 675 629 l 675 641 b 339 956 675 785 617 956 b 11 669 149 956 11 836 b 347 365 11 468 173 404 b 530 243 530 324 530 263 b 369 159 530 173 442 159 b 238 199 308 159 264 172 b 205 306 203 236 205 306 l 206 319 l 29 320 l 28 309 b 109 71 26 276 24 162 b 369 -20 170 6 245 -20 b 716 262 625 -20 716 126 b 644 432 716 335 697 380 z "},"T":{"ha":742,"x_min":0,"x_max":0,"o":"m -12 934 l -12 743 l 275 743 l 275 1 l 466 1 l 466 743 l 753 743 l 753 934 z "},"U":{"ha":793,"x_min":0,"x_max":0,"o":"m 761 932 l 581 932 l 581 294 b 398 172 581 233 556 174 b 216 291 258 169 216 214 b 211 932 216 446 211 927 l 34 932 b 26 273 34 927 26 426 b 173 16 26 119 105 49 b 398 -21 244 -18 331 -21 b 604 16 469 -21 528 -16 b 764 284 717 63 764 158 z "},"V":{"ha":796,"x_min":0,"x_max":0,"o":"m 602 932 l 398 276 l 194 932 l -17 932 l 250 146 l 398 268 l 546 146 l 812 932 z m 396 -21 b 499 82 453 -21 499 25 b 396 185 499 139 453 185 b 294 82 339 185 294 139 b 396 -21 294 25 339 -21 z "},"W":{"ha":1163,"x_min":0,"x_max":0,"o":"m 348 333 l 194 934 l -14 934 l 250 1 l 433 1 l 580 551 l 444 779 z m 970 934 l 828 344 l 718 779 l 580 551 l 725 1 l 914 1 l 1175 934 z m 580 719 b 694 834 643 719 694 770 b 580 948 694 897 643 948 b 466 834 517 948 466 897 b 580 719 466 770 517 719 z "},"X":{"ha":800,"x_min":0,"x_max":0,"o":"m 231 935 l 0 935 l 286 478 l 400 632 z m 796 935 l 570 935 l 400 632 l 512 486 z m -17 1 l 211 1 l 400 321 l 286 478 z m 512 486 l 400 321 l 578 1 l 816 1 z m 400 540 b 345 486 370 540 345 516 b 400 431 345 456 370 431 b 454 486 430 431 454 456 b 400 540 454 516 430 540 z "},"Y":{"ha":788,"x_min":0,"x_max":0,"o":"m 584 934 l 402 555 l 559 467 l 809 934 z m -22 934 l 238 467 l 402 555 l 205 934 z m 497 1 l 497 351 l 301 351 l 301 1 z m 412 386 b 458 460 445 393 466 427 b 384 506 450 493 417 513 b 338 431 351 498 330 465 b 412 386 346 398 379 378 z "},"Z":{"ha":738,"x_min":0,"x_max":0,"o":"m 733 935 l 17 935 l 17 773 l 492 773 l 3 167 l 3 1 l 733 1 l 733 167 l 245 167 l 733 773 z "},"[":{"ha":396,"x_min":0,"x_max":0,"o":"m 376 826 l 376 934 l 35 934 l 35 0 l 376 0 l 376 108 l 172 108 l 172 826 z "},"]":{"ha":396,"x_min":0,"x_max":0,"o":"m 223 826 l 223 108 l 19 108 l 19 0 l 361 0 l 361 934 l 19 934 l 19 826 z "},"^":{"ha":694,"x_min":0,"x_max":0,"o":"m 666 831 b 347 927 554 808 440 842 l 347 926 b 347 927 347 926 347 927 b 28 831 255 842 140 808 b 13 710 23 791 18 751 b 347 782 128 686 245 712 b 682 710 449 712 567 686 b 666 831 677 751 672 791 z "},"_":{"ha":569,"x_min":0,"x_max":0,"o":"m 556 -1 l 556 129 l 13 129 l 13 -1 z "},"a":{"ha":721,"x_min":0,"x_max":0,"o":"m 712 142 l 704 143 b 671 156 696 143 683 146 b 621 349 652 173 621 219 l 621 550 l 436 550 l 436 527 l 421 534 b 297 563 382 553 340 563 b 8 274 138 563 8 433 b 297 -14 8 115 138 -14 b 493 64 370 -14 440 14 l 502 71 l 508 62 b 550 17 520 45 534 30 b 573 -1 557 10 565 4 l 575 -3 l 720 -3 z m 297 141 b 164 274 223 141 164 201 b 297 407 164 348 223 407 b 430 274 370 407 430 348 b 297 141 430 201 370 141 z "},"b":{"ha":660,"x_min":0,"x_max":0,"o":"m 367 554 b 228 518 318 554 270 542 l 214 510 l 214 1096 l 31 1096 l 31 -3 l 214 -3 l 214 31 l 228 23 b 367 -14 270 -1 318 -14 b 651 270 523 -14 651 114 b 367 554 651 427 523 554 z m 367 140 b 236 270 295 140 236 198 b 367 401 236 342 295 401 b 497 270 439 401 497 342 b 367 140 497 198 439 140 z "},"c":{"ha":576,"x_min":0,"x_max":0,"o":"m 380 197 b 297 161 358 173 329 161 b 183 275 234 161 183 212 b 297 389 183 337 234 389 b 382 350 329 389 361 374 l 385 347 l 572 362 l 568 373 b 297 563 527 487 418 563 b 8 275 138 563 8 434 b 297 -14 8 115 138 -14 b 468 43 359 -14 418 6 b 564 165 511 74 544 116 l 568 175 l 383 200 z "},"d":{"ha":639,"x_min":0,"x_max":0,"o":"m 434 1098 l 434 528 l 420 535 b 297 563 381 553 340 563 b 8 274 138 563 8 433 b 297 -14 8 115 138 -14 b 420 14 340 -14 381 -5 l 434 20 l 434 2 l 608 2 l 608 1098 z m 308 144 b 178 274 236 144 178 202 b 308 405 178 346 236 405 b 439 274 380 405 439 346 b 308 144 439 202 380 144 z "},"e":{"ha":592,"x_min":0,"x_max":0,"o":"m 296 562 b 8 274 138 562 8 433 b 296 -14 8 115 138 -14 b 449 30 351 -14 403 1 b 543 125 487 54 519 87 l 548 134 l 375 192 l 371 188 b 296 160 350 170 324 160 b 196 221 254 160 215 184 l 188 235 l 582 233 l 582 241 b 584 274 584 252 584 263 b 296 562 584 433 455 562 z m 190 313 l 190 322 b 222 381 190 345 201 365 b 296 404 242 396 268 404 b 370 381 324 404 351 396 b 403 322 391 365 403 345 l 403 313 z "},"f":{"ha":457,"x_min":0,"x_max":0,"o":"m 534 1020 b 327 1100 478 1072 405 1100 b 120 1020 249 1100 176 1072 b 31 820 62 967 31 896 l 31 0 l 204 0 l 204 820 b 327 926 204 878 259 926 b 450 820 395 926 450 878 l 450 713 l 623 713 l 623 820 b 534 1020 623 896 592 967 z m 459 509 b 380 637 473 567 437 624 b 252 558 323 651 266 615 b 331 430 239 501 274 444 b 459 509 388 417 446 452 z "},"g":{"ha":606,"x_min":0,"x_max":0,"o":"m 405 532 l 405 526 l 392 530 b 291 549 360 543 326 549 b 8 266 135 549 8 422 b 291 -17 8 110 135 -17 b 392 1 326 -17 360 -11 l 405 6 l 405 -93 b 309 -174 405 -138 362 -174 b 214 -109 263 -174 223 -147 l 212 -102 l 41 -102 l 41 -112 b 122 -274 46 -173 75 -231 b 309 -345 172 -320 238 -345 b 495 -274 379 -345 445 -320 b 576 -93 548 -226 576 -162 l 576 532 z m 291 138 b 163 266 221 138 163 195 b 291 394 163 337 221 394 b 420 266 362 394 420 337 b 291 138 420 195 362 138 z "},"h":{"ha":622,"x_min":0,"x_max":0,"o":"m 316 571 b 218 554 282 571 249 565 l 205 549 l 205 1095 l 31 1095 l 31 0 l 205 0 l 205 285 b 316 397 205 347 255 397 b 427 285 377 397 427 347 l 427 0 l 602 0 l 602 285 b 316 571 602 443 474 571 z "},"i":{"ha":240,"x_min":0,"x_max":0,"o":"m 210 0 l 210 554 l 31 554 l 31 0 z m 120 640 b 214 734 172 640 214 682 b 120 828 214 786 172 828 b 26 734 68 828 26 786 b 120 640 26 682 68 640 z "},"j":{"ha":233,"x_min":0,"x_max":0,"o":"m 29 -85 b -37 -167 29 -131 0 -167 b -101 -102 -68 -167 -95 -140 l -102 -95 l -276 -95 l -276 -104 b -209 -263 -272 -164 -248 -220 b -37 -341 -163 -313 -102 -341 b 136 -263 29 -341 90 -313 b 203 -85 179 -215 203 -152 l 203 539 l 29 539 l 29 -85 z m 143 630 b 211 740 192 642 222 691 b 101 808 199 789 150 819 b 34 698 52 796 22 747 b 143 630 45 649 94 619 z "},"k":{"ha":665,"x_min":0,"x_max":0,"o":"m 286 360 l 614 528 l 610 545 l 394 545 l 205 448 l 205 1098 l 31 1098 l 31 0 l 205 0 l 205 197 l 421 0 l 680 0 z "},"l":{"ha":236,"x_min":0,"x_max":0,"o":"m 205 0 l 205 1098 l 31 1098 l 31 0 z "},"m":{"ha":865,"x_min":0,"x_max":0,"o":"m 765 484 b 595 544 719 523 658 544 b 442 497 540 544 485 527 l 436 493 l 430 497 b 277 544 387 527 333 544 b 219 538 257 544 238 542 l 207 535 l 207 554 l 29 554 l 29 0 l 207 0 l 207 322 b 277 367 207 341 233 367 b 347 322 321 367 347 341 l 347 0 l 525 0 l 525 322 b 595 367 525 341 552 367 b 666 322 639 367 666 341 l 666 0 l 843 0 l 843 322 b 765 484 843 384 814 443 z "},"n":{"ha":631,"x_min":0,"x_max":0,"o":"m 519 476 b 321 545 465 520 395 545 b 221 529 286 545 253 540 l 208 525 l 208 554 l 31 554 l 31 2 l 208 2 l 208 291 b 238 342 208 309 219 327 b 321 367 260 358 289 367 b 403 342 352 367 382 358 b 433 291 422 327 433 309 l 433 0 l 611 0 l 611 291 b 519 476 611 361 577 429 z "},"o":{"ha":594,"x_min":0,"x_max":0,"o":"m 297 563 b 8 274 138 563 8 433 b 297 -14 8 115 138 -14 b 585 274 456 -14 585 115 b 297 563 585 433 456 563 z m 297 144 b 166 274 225 144 166 202 b 297 405 166 346 225 405 b 427 274 369 405 427 346 b 297 144 427 202 369 144 z "},"p":{"ha":640,"x_min":0,"x_max":0,"o":"m 340 553 b 219 526 298 553 257 544 l 206 520 l 206 535 l 31 535 l 31 -342 l 206 -342 l 206 7 l 219 0 b 340 -26 257 -17 298 -26 b 629 263 500 -26 629 104 b 340 553 629 423 500 553 z m 357 132 b 226 258 287 132 229 187 l 226 260 b 226 263 226 261 226 262 b 226 266 226 264 226 265 l 226 269 b 357 394 229 339 287 394 b 488 263 429 394 488 335 b 357 132 488 191 429 132 z "},"q":{"ha":647,"x_min":0,"x_max":0,"o":"m 440 538 l 440 519 l 427 526 b 299 555 387 545 344 555 b 10 266 140 555 10 425 b 299 -24 10 106 140 -24 b 427 5 344 -24 387 -14 l 440 12 l 440 -341 l 616 -341 l 616 538 z m 299 134 b 168 266 227 134 168 193 b 299 397 168 338 227 397 b 430 266 372 397 430 338 b 299 134 430 193 372 134 z "},"r":{"ha":446,"x_min":0,"x_max":0,"o":"m 437 557 b 389 558 421 558 404 558 b 221 530 326 558 270 549 l 208 525 l 208 553 l 31 553 l 31 0 l 208 0 l 208 286 l 208 287 b 238 337 210 296 218 317 b 389 381 270 366 320 381 b 421 380 399 381 410 381 l 430 379 l 446 556 z "},"s":{"ha":588,"x_min":0,"x_max":0,"o":"m 580 306 l 579 314 l 186 314 l 193 328 b 294 388 213 365 252 388 b 342 377 310 388 327 384 l 345 376 l 537 429 l 530 439 b 440 522 506 473 475 502 b 294 562 396 548 345 562 b 6 274 135 562 6 433 b 9 233 6 260 7 246 l 10 225 l 398 225 l 388 210 b 294 160 366 179 331 160 b 248 170 278 160 262 164 l 245 171 l 59 106 l 67 97 b 294 -14 122 26 204 -14 b 582 274 452 -14 582 115 b 580 306 582 285 581 296 z "},"t":{"ha":475,"x_min":0,"x_max":0,"o":"m 486 562 l 486 703 l 197 703 l 197 1093 l 24 1093 l 24 199 b 246 -14 24 82 124 -14 b 469 199 369 -14 469 82 l 469 270 l 296 270 l 296 199 b 246 159 296 177 274 159 b 197 199 219 159 197 177 l 197 562 z "},"u":{"ha":561,"x_min":0,"x_max":0,"o":"m 368 552 l 368 220 b 280 156 368 186 328 156 b 193 220 233 156 193 186 l 193 552 l 22 552 l 22 220 b 102 50 22 156 51 94 b 280 -14 151 8 214 -14 b 458 50 347 -14 410 8 b 539 220 509 94 539 156 l 539 552 z "},"v":{"ha":576,"x_min":0,"x_max":0,"o":"m 429 553 l 290 203 l 147 553 l -8 553 l 221 -1 l 360 0 l 584 553 z "},"w":{"ha":753,"x_min":0,"x_max":0,"o":"m 583 552 l 583 211 b 516 133 583 168 553 133 b 450 211 479 133 450 168 l 450 552 l 303 552 l 303 211 b 309 157 303 193 305 175 l 310 153 l 307 152 b 237 133 290 143 264 133 b 170 211 200 133 170 168 l 170 552 l 24 552 l 24 211 b 237 -14 24 87 119 -14 b 387 29 299 -14 353 9 l 390 30 l 392 28 b 516 -14 428 1 471 -14 b 729 211 633 -14 729 87 l 729 552 z "},"x":{"ha":640,"x_min":0,"x_max":0,"o":"m 645 557 l 456 557 l 320 393 l 180 560 l -6 557 l 226 280 l -6 3 l 180 0 l 320 167 l 456 3 l 645 3 l 414 280 z "},"y":{"ha":571,"x_min":0,"x_max":0,"o":"m 369 532 l 369 225 b 369 224 369 225 369 224 l 369 224 b 342 189 368 211 358 199 b 281 173 325 178 303 173 b 193 225 226 173 193 203 l 193 532 l 21 532 l 21 225 b 104 60 21 162 51 102 b 281 1 152 22 215 1 b 357 11 307 1 333 4 l 369 14 l 369 -94 b 304 -175 369 -138 340 -175 b 240 -110 273 -175 246 -148 l 239 -103 l 67 -103 l 67 -112 b 133 -270 71 -171 95 -227 b 304 -347 178 -319 239 -347 b 474 -270 369 -347 429 -319 b 541 -94 517 -222 541 -160 l 541 222 b 541 225 541 223 541 224 l 541 532 z "},"z":{"ha":558,"x_min":0,"x_max":0,"o":"m 555 1 l 555 159 l 283 159 l 513 554 l 7 554 l 7 396 l 238 396 l 8 0 z "},"~":{"ha":444,"x_min":0,"x_max":0,"o":"m 428 531 b 323 485 404 499 363 480 b 242 532 291 489 268 513 b 15 531 174 583 82 578 b 15 399 15 531 15 405 b 158 431 49 442 109 466 b 209 393 176 418 191 405 b 301 363 237 372 268 364 b 428 399 345 361 391 374 b 428 531 426 443 428 531 z "}," ":{"ha":358,"x_min":0,"x_max":0,"o":""},"­":{"ha":0,"x_min":0,"x_max":0,"o":""},"°":{"ha":210,"x_min":0,"x_max":0,"o":"m 104 749 b 130 724 118 749 130 738 b 104 699 130 710 118 699 b 79 724 90 699 79 710 b 104 749 79 738 90 749 z m 13 724 b 104 632 13 673 54 632 b 196 724 155 632 196 673 b 104 816 196 775 155 816 b 13 724 54 816 13 775 z "},"À":{"ha":869,"x_min":0,"x_max":0,"o":"m 552 934 l 434 934 l 317 934 l -17 0 l 190 0 l 434 745 l 679 0 l 885 0 z m 529 236 b 473 369 550 288 525 347 b 340 314 421 390 362 366 b 395 181 319 262 344 202 b 529 236 447 159 507 184 z m 651 979 b 634 1080 645 1013 640 1046 b 296 1160 515 1061 394 1090 b 236 1077 276 1132 256 1104 b 651 979 356 990 505 955 z "},"Á":{"ha":872,"x_min":0,"x_max":0,"o":"m 553 934 l 436 934 l 318 934 l -15 0 l 192 0 l 436 744 l 680 0 l 887 0 z m 530 235 b 475 368 551 287 527 347 b 342 313 423 390 363 365 b 397 180 320 261 345 202 b 530 235 449 159 508 183 z m 652 1076 b 592 1159 632 1104 612 1132 b 254 1080 494 1089 373 1060 b 237 979 248 1046 243 1012 b 652 1076 383 955 532 990 z "},"Â":{"ha":872,"x_min":0,"x_max":0,"o":"m 553 934 l 436 934 l 318 934 l -15 0 l 192 0 l 436 744 l 680 0 l 887 0 z m 530 235 b 475 368 551 287 527 347 b 342 313 423 390 363 365 b 397 180 320 261 345 202 b 530 235 449 159 508 183 z m 436 1080 b 663 1030 505 1031 585 1013 b 652 1115 659 1058 656 1087 b 436 1182 576 1099 498 1123 l 436 1181 b 436 1182 436 1181 436 1182 b 219 1115 373 1123 295 1099 b 209 1030 216 1087 212 1058 b 436 1080 287 1013 367 1031 z "},"Æ":{"ha":1324,"x_min":0,"x_max":0,"o":"m 1320 933 l 860 933 l 860 934 l 676 934 l -22 0 l 201 0 l 693 642 l 693 25 l 690 0 l 855 0 l 855 1 l 1320 1 l 1320 164 l 880 164 l 880 770 l 1320 770 z m 538 67 b 631 178 594 72 635 121 b 520 270 626 234 576 275 b 428 160 464 265 423 216 b 538 67 433 104 482 62 z m 1154 422 b 1098 567 1178 477 1153 542 b 952 511 1042 592 977 567 b 1008 366 927 456 952 391 b 1154 422 1064 341 1129 366 z "},"Ç":{"ha":919,"x_min":0,"x_max":0,"o":"m 734 315 b 689 257 721 294 706 274 b 487 173 635 203 564 173 b 286 257 411 173 340 203 b 203 458 232 311 203 382 b 286 660 203 534 232 606 b 487 743 340 714 411 743 b 689 660 564 743 635 714 b 705 643 694 654 700 649 l 904 703 b 487 942 820 846 665 942 b 4 458 221 942 4 725 b 457 -24 4 202 204 -8 l 454 -31 b 384 -129 438 -64 411 -104 l 384 -174 b 454 -238 423 -175 454 -203 b 384 -301 454 -272 423 -300 l 384 -346 b 506 -238 452 -345 506 -297 b 471 -162 506 -209 493 -182 l 464 -156 l 470 -149 b 537 -42 499 -117 521 -81 b 544 -22 540 -35 542 -28 l 545 -22 b 926 256 714 -2 857 107 z "},"È":{"ha":668,"x_min":0,"x_max":0,"o":"m 313 501 b 382 361 293 443 324 381 b 522 430 440 342 502 373 b 453 570 541 488 510 551 b 313 501 395 589 332 558 z m 663 932 l 35 932 l 35 0 l 663 0 l 663 163 l 222 163 l 222 769 l 663 769 z m 556 976 b 539 1077 550 1010 545 1044 b 201 1157 421 1058 299 1087 b 141 1074 181 1129 161 1102 b 556 976 261 988 410 953 z "},"É":{"ha":668,"x_min":0,"x_max":0,"o":"m 313 501 b 382 361 293 443 324 381 b 522 430 440 342 502 373 b 453 570 541 488 510 551 b 313 501 395 589 332 558 z m 663 932 l 35 932 l 35 0 l 663 0 l 663 163 l 222 163 l 222 769 l 663 769 z m 565 1074 b 505 1157 545 1102 525 1129 b 167 1077 408 1087 286 1058 b 151 976 162 1044 156 1010 b 565 1074 296 952 445 988 z "},"Ê":{"ha":668,"x_min":0,"x_max":0,"o":"m 313 501 b 382 361 293 443 324 381 b 522 430 440 342 502 373 b 453 570 541 488 510 551 b 313 501 395 589 332 558 z m 663 932 l 35 932 l 35 0 l 663 0 l 663 163 l 222 163 l 222 769 l 663 769 z m 349 1040 b 576 990 418 991 498 973 b 565 1075 572 1018 569 1046 b 349 1142 489 1058 411 1083 l 349 1141 b 349 1142 349 1141 349 1142 b 132 1075 286 1083 208 1058 b 122 990 129 1046 125 1018 b 349 1040 200 973 280 991 z "},"Ô":{"ha":997,"x_min":0,"x_max":0,"o":"m 498 974 b 4 480 225 974 4 753 b 498 -14 4 207 225 -14 b 993 480 771 -14 993 207 b 498 974 993 753 771 974 z m 498 177 b 196 480 331 177 196 313 b 498 783 196 647 331 783 b 801 480 665 783 801 647 b 498 177 801 313 665 177 z m 493 1054 b 720 1004 562 1005 642 987 b 710 1089 717 1032 713 1060 b 493 1155 634 1072 556 1096 l 493 1155 b 493 1155 493 1155 493 1155 b 277 1089 431 1096 353 1072 b 266 1004 273 1060 270 1032 b 493 1054 345 987 424 1005 z "},"Ù":{"ha":793,"x_min":0,"x_max":0,"o":"m 558 973 b 541 1075 552 1007 547 1041 b 203 1154 422 1055 301 1084 b 143 1071 183 1127 163 1099 b 558 973 263 985 412 950 z m 761 938 l 581 938 l 581 301 b 398 178 581 239 556 180 b 216 298 258 175 216 220 b 211 938 216 453 211 933 l 34 938 b 26 279 34 933 26 433 b 173 22 26 126 105 55 b 398 -14 244 -11 331 -14 b 604 22 469 -14 528 -10 b 764 290 717 70 764 165 z "},"Ú":{"ha":793,"x_min":0,"x_max":0,"o":"m 558 974 b 541 1075 552 1008 547 1041 b 203 1155 422 1056 301 1084 b 143 1072 183 1127 163 1099 b 558 974 263 985 412 950 z m 761 939 l 581 939 l 581 301 b 398 178 581 240 556 181 b 216 298 258 176 216 221 b 211 939 216 453 211 934 l 34 939 b 26 279 34 934 26 433 b 173 23 26 126 105 55 b 398 -14 244 -11 331 -14 b 604 23 469 -14 528 -10 b 764 290 717 70 764 165 z "},"Û":{"ha":793,"x_min":0,"x_max":0,"o":"m 761 939 l 581 939 l 581 301 b 398 178 581 240 556 181 b 216 298 258 176 216 221 b 211 939 216 453 211 934 l 34 939 b 26 279 34 934 26 433 b 173 23 26 126 105 55 b 398 -14 244 -11 331 -14 b 604 23 469 -14 528 -10 b 764 290 717 70 764 165 z m 395 1076 b 622 1025 464 1027 544 1008 b 612 1110 619 1054 615 1082 b 395 1177 536 1094 458 1118 l 395 1177 b 395 1177 395 1177 395 1177 b 179 1110 333 1118 255 1094 b 168 1025 175 1082 172 1054 b 395 1076 247 1008 326 1027 z "},"à":{"ha":719,"x_min":0,"x_max":0,"o":"m 711 142 l 703 143 b 670 157 694 143 682 146 b 620 348 651 173 620 219 l 620 549 l 435 549 l 435 527 l 421 534 b 296 562 381 552 340 562 b 8 274 137 562 8 433 b 296 -13 8 116 137 -13 b 492 64 369 -13 439 14 l 501 72 l 507 63 b 549 17 519 46 533 30 b 572 -1 556 11 564 5 l 574 -2 l 719 -2 z m 296 142 b 163 274 223 142 163 201 b 296 407 163 347 223 407 b 429 274 369 407 429 347 b 296 142 429 201 369 142 z m 310 680 b 486 652 367 662 426 652 l 486 652 b 559 657 510 652 534 654 l 577 659 l 560 763 l 543 761 b 486 757 524 758 505 757 b 226 835 393 757 303 784 l 212 845 l 151 760 l 166 750 b 310 680 211 720 259 696 z "},"á":{"ha":719,"x_min":0,"x_max":0,"o":"m 711 142 l 703 142 b 670 156 694 143 682 146 b 620 348 651 172 620 219 l 620 549 l 435 549 l 435 526 l 421 533 b 296 561 381 552 340 561 b 8 274 137 561 8 432 b 296 -14 8 115 137 -14 b 492 64 369 -14 439 14 l 501 71 l 507 62 b 549 16 519 45 533 30 b 572 -1 556 10 564 4 l 574 -3 l 719 -3 z m 296 141 b 163 274 223 141 163 201 b 296 406 163 347 223 406 b 429 274 369 406 429 347 b 296 141 429 201 369 141 z m 242 652 b 418 679 302 652 361 661 b 562 749 469 696 517 719 l 577 759 l 516 844 l 502 835 b 242 757 425 784 335 757 b 185 760 223 757 204 758 l 167 762 l 151 659 l 169 657 b 242 652 193 653 218 652 z "},"â":{"ha":719,"x_min":0,"x_max":0,"o":"m 711 142 l 703 143 b 670 157 694 143 682 146 b 620 348 651 173 620 219 l 620 549 l 435 549 l 435 527 l 421 534 b 296 562 382 552 340 562 b 8 274 137 562 8 433 b 296 -13 8 116 137 -13 b 492 64 369 -13 439 14 l 501 72 l 507 63 b 549 17 519 46 533 30 b 572 -1 556 11 564 5 l 574 -2 l 719 -2 z m 296 142 b 163 274 223 142 163 201 b 296 407 163 347 223 407 b 429 274 369 407 429 347 b 296 142 429 201 369 142 z m 186 675 b 361 733 247 675 307 695 l 361 733 l 361 733 b 536 675 415 695 475 675 b 577 678 550 675 563 676 l 594 680 l 592 698 b 589 725 591 707 590 716 l 584 767 l 566 764 b 536 762 556 763 546 762 b 373 826 478 762 421 784 l 361 836 l 349 826 b 186 762 301 784 244 762 b 156 764 176 762 166 763 l 138 767 l 133 727 b 130 698 132 717 131 707 l 127 680 l 145 678 b 186 675 159 676 172 675 z "},"ä":{"ha":719,"x_min":0,"x_max":0,"o":"m 711 141 l 703 142 b 670 156 694 143 682 145 b 620 348 651 172 620 219 l 620 549 l 435 549 l 435 526 l 421 533 b 296 561 381 552 340 561 b 8 274 137 561 8 432 b 296 -14 8 115 137 -14 b 492 63 369 -14 439 13 l 501 71 l 507 62 b 549 16 519 45 533 30 b 572 -2 556 10 564 4 l 574 -3 l 719 -3 z m 296 141 b 163 274 223 141 163 200 b 296 406 163 347 223 406 b 429 274 369 406 429 347 b 296 141 429 200 369 141 z m 484 630 b 577 722 535 630 577 671 b 484 815 577 773 535 815 b 392 722 433 815 392 773 b 484 630 392 671 433 630 z m 243 630 b 336 722 295 630 336 671 b 243 815 336 773 295 815 b 151 722 192 815 151 773 b 243 630 151 671 192 630 z "},"ç":{"ha":574,"x_min":0,"x_max":0,"o":"m 377 194 b 295 158 356 171 327 158 b 182 271 233 158 182 209 b 295 384 182 333 233 384 b 380 345 327 384 358 370 l 383 342 l 568 358 l 564 369 b 295 558 523 482 415 558 b 8 271 137 558 8 429 b 253 -13 8 127 115 8 b 226 -44 245 -23 236 -34 l 221 -49 l 221 -93 l 235 -96 b 291 -159 268 -103 291 -129 b 235 -221 291 -188 268 -214 l 221 -224 l 221 -269 l 242 -266 b 343 -159 301 -256 343 -211 b 308 -82 343 -130 331 -103 l 301 -76 l 307 -69 b 350 -10 323 -51 338 -31 b 465 40 392 -2 431 15 b 560 162 508 72 540 114 l 564 172 l 381 197 z "},"è":{"ha":592,"x_min":0,"x_max":0,"o":"m 243 659 b 416 632 299 641 357 632 l 416 632 b 488 637 440 632 464 634 l 506 639 l 490 741 l 472 739 b 416 736 454 737 434 736 b 161 813 325 736 237 762 l 147 822 l 86 738 l 102 728 b 243 659 145 698 193 675 z m 296 562 b 8 274 137 562 8 433 b 296 -14 8 115 137 -14 b 449 30 350 -14 403 1 b 542 125 487 54 519 86 l 548 134 l 374 192 l 371 188 b 296 161 350 170 323 161 b 196 221 254 161 215 184 l 189 235 l 581 233 l 582 241 b 584 274 583 252 584 263 b 296 562 584 433 455 562 z m 402 313 l 190 313 l 190 322 b 222 380 190 344 202 365 b 296 403 242 395 268 403 b 370 380 324 403 350 395 b 402 322 391 365 402 344 z "},"é":{"ha":590,"x_min":0,"x_max":0,"o":"m 296 561 b 8 273 137 561 8 432 b 296 -14 8 115 137 -14 b 448 30 350 -14 402 1 b 541 124 486 54 518 86 l 547 134 l 374 191 l 370 188 b 296 160 349 170 323 160 b 195 221 254 160 215 184 l 188 235 l 580 233 l 581 241 b 583 273 582 251 583 263 b 296 561 583 432 454 561 z m 401 312 l 190 312 l 190 322 b 222 380 190 344 201 364 b 296 402 242 394 268 402 b 369 380 323 402 350 394 b 401 322 390 364 401 344 z m 176 631 b 349 658 235 631 293 640 b 490 726 399 674 446 697 l 505 737 l 445 821 l 430 811 b 176 735 355 761 267 735 b 120 738 158 735 139 736 l 103 740 l 86 638 l 105 636 b 176 631 128 633 152 631 z "},"ê":{"ha":592,"x_min":0,"x_max":0,"o":"m 124 654 b 296 711 184 654 243 674 l 296 711 l 296 711 b 468 654 349 674 408 654 b 509 657 481 654 495 655 l 526 660 l 524 677 b 520 706 523 687 522 696 l 516 745 l 497 743 b 468 741 488 742 478 741 b 308 803 411 741 356 762 l 296 813 l 284 803 b 124 741 237 762 181 741 b 95 743 114 741 105 742 l 77 745 b 72 706 77 745 73 713 b 68 677 71 696 70 687 l 66 660 l 84 657 b 124 654 97 655 111 654 z m 296 562 b 8 274 137 562 8 433 b 296 -14 8 115 137 -14 b 449 30 350 -14 403 1 b 542 125 487 54 519 86 l 548 134 l 374 192 l 371 188 b 296 161 350 170 323 161 b 196 221 254 161 215 184 l 189 235 l 581 233 l 582 241 b 584 274 583 252 584 263 b 296 562 584 433 455 562 z m 402 313 l 190 313 l 190 322 b 222 380 190 344 202 365 b 296 403 242 395 268 403 b 370 380 324 403 350 395 b 402 322 391 365 402 344 z "},"ë":{"ha":592,"x_min":0,"x_max":0,"o":"m 296 569 b 8 281 137 569 8 440 b 296 -7 8 122 137 -7 b 449 37 350 -7 403 8 b 542 132 487 61 519 93 l 548 141 l 374 199 l 371 195 b 296 168 350 177 323 168 b 196 228 254 168 215 191 l 189 242 l 581 240 l 582 248 b 584 281 583 259 584 270 b 296 569 584 440 455 569 z m 402 320 l 190 320 l 190 329 b 222 387 190 351 202 372 b 296 410 242 402 268 410 b 370 387 324 410 350 402 b 402 329 391 372 402 351 z m 430 619 b 503 726 480 629 512 677 b 396 799 493 776 445 808 b 323 692 346 789 314 741 b 430 619 333 642 381 610 z m 194 619 b 266 726 243 629 276 677 b 159 799 257 776 209 808 b 87 692 109 789 77 741 b 194 619 96 642 144 610 z "},"ï":{"ha":239,"x_min":0,"x_max":0,"o":"m 209 1 l 209 553 l 30 553 l 30 1 z m 262 643 b 332 755 312 654 344 705 b 219 825 320 805 270 836 b 150 712 169 813 138 762 b 262 643 162 662 212 631 z m 13 641 b 90 748 64 649 98 697 b -17 825 82 799 34 834 b -94 718 -68 817 -103 769 b 13 641 -86 667 -38 633 z "},"ñ":{"ha":628,"x_min":0,"x_max":0,"o":"m 517 474 b 319 542 463 518 393 542 b 220 527 285 542 252 537 l 207 523 l 207 552 l 31 552 l 31 2 l 207 2 l 207 290 b 237 340 207 308 218 326 b 319 365 259 357 288 365 b 402 340 351 365 380 357 b 431 290 421 326 431 308 l 431 0 l 608 0 l 608 290 b 517 474 608 360 575 427 z m 187 717 b 246 698 209 717 228 711 l 246 698 b 273 678 256 691 264 685 b 299 659 281 672 290 665 b 389 629 324 640 352 631 b 396 629 391 629 393 629 b 505 660 434 629 473 640 l 509 662 l 509 667 b 509 750 508 693 508 726 l 509 766 l 495 757 b 424 735 474 743 448 735 b 410 736 419 735 414 735 l 410 736 b 336 775 380 740 357 759 b 322 787 331 779 326 783 b 214 822 290 810 253 822 b 107 791 177 822 139 811 l 103 788 l 103 684 l 117 693 b 187 717 139 709 163 717 z "},"ô":{"ha":593,"x_min":0,"x_max":0,"o":"m 296 561 b 8 273 138 561 8 432 b 296 -15 8 115 138 -15 b 584 273 455 -15 584 115 b 296 561 584 432 455 561 z m 296 143 b 166 273 225 143 166 202 b 296 403 166 345 225 403 b 426 273 368 403 426 345 b 296 143 426 202 368 143 z m 124 675 b 296 732 184 675 244 695 l 296 732 l 296 732 b 468 675 349 695 408 675 b 509 678 482 675 495 676 l 526 681 l 524 698 b 521 726 523 707 522 717 l 516 766 l 498 764 b 468 762 488 763 478 762 b 308 824 411 762 356 783 l 296 834 l 285 824 b 124 762 237 783 181 762 b 95 764 114 762 105 763 l 77 766 l 72 726 b 68 698 71 717 70 707 l 66 681 l 84 678 b 124 675 97 676 111 675 z "},"ö":{"ha":593,"x_min":0,"x_max":0,"o":"m 297 562 b 8 274 138 562 8 433 b 297 -14 8 115 138 -14 b 585 274 455 -14 585 115 b 297 562 585 433 455 562 z m 297 144 b 166 274 225 144 166 202 b 297 404 166 346 225 404 b 427 274 368 404 427 346 b 297 144 427 202 368 144 z m 447 637 b 504 754 495 654 521 706 b 388 811 488 802 436 827 b 331 694 340 794 315 742 b 447 637 348 646 400 621 z m 181 633 b 272 724 231 633 272 674 b 181 816 272 775 231 816 b 89 724 130 816 89 775 b 181 633 89 674 130 633 z "},"ù":{"ha":557,"x_min":0,"x_max":0,"o":"m 226 662 b 393 636 280 645 337 636 l 393 636 b 463 641 417 636 440 638 l 481 643 l 465 742 l 448 739 b 393 736 430 737 412 736 b 147 810 305 736 220 762 l 133 819 l 74 738 l 89 728 b 226 662 132 700 178 678 z m 364 546 l 364 218 b 278 155 364 184 324 155 b 191 218 231 155 191 184 l 191 546 l 22 546 l 22 218 b 102 50 22 155 51 93 b 278 -14 149 9 212 -14 b 454 50 344 -14 406 9 b 533 218 504 93 533 155 l 533 546 z "},"ú":{"ha":557,"x_min":0,"x_max":0,"o":"m 162 643 b 329 669 219 643 275 652 b 466 736 378 685 424 707 l 481 746 l 422 827 l 408 818 b 162 744 335 769 250 744 b 107 747 144 744 125 745 l 90 749 l 74 650 l 92 647 b 162 643 115 645 139 643 z m 364 546 l 364 218 b 278 155 364 184 324 155 b 191 218 231 155 191 184 l 191 546 l 22 546 l 22 218 b 102 50 22 155 51 93 b 278 -14 149 9 212 -14 b 454 50 344 -14 406 9 b 533 218 504 93 533 155 l 533 546 z "},"û":{"ha":557,"x_min":0,"x_max":0,"o":"m 114 664 b 281 720 172 664 230 683 b 447 664 331 683 389 664 b 486 667 460 664 473 665 l 503 670 l 501 687 b 498 714 500 696 499 705 l 493 753 l 475 751 b 447 749 466 749 456 749 b 292 809 392 749 338 770 l 280 819 l 269 809 b 114 749 223 770 169 749 b 86 751 105 749 95 749 l 68 753 l 63 714 b 60 687 62 705 61 696 l 58 670 l 75 667 b 114 664 88 665 101 664 z m 364 546 l 364 218 b 278 155 364 184 325 155 b 191 218 231 155 191 184 l 191 546 l 22 546 l 22 218 b 102 50 22 155 51 93 b 278 -14 149 9 212 -14 b 454 50 344 -14 406 9 b 533 218 504 93 533 155 l 533 546 z "},"ü":{"ha":564,"x_min":0,"x_max":0,"o":"m 398 633 b 488 723 448 633 488 673 b 398 813 488 772 448 813 b 308 723 349 813 308 772 b 398 633 308 673 349 633 z m 165 633 b 255 723 215 633 255 673 b 165 813 255 772 215 813 b 75 723 116 813 75 772 b 165 633 75 673 116 633 z m 370 549 l 370 219 b 282 156 370 185 329 156 b 194 219 234 156 194 185 l 194 549 l 22 549 l 22 219 b 103 50 22 156 52 94 b 282 -14 151 9 215 -14 b 461 50 349 -14 412 9 b 541 219 512 94 541 156 l 541 549 z "},"Œ":{"ha":1103,"x_min":0,"x_max":0,"o":"m 752 512 b 748 501 750 508 749 505 b 752 421 738 474 741 445 b 817 361 764 394 787 372 b 929 387 858 348 901 359 b 957 431 941 399 951 414 b 930 544 970 472 959 515 b 887 570 918 555 904 565 b 752 512 833 588 775 562 z m 1097 932 l 511 932 b 469 934 497 933 483 934 b 3 467 212 934 3 725 b 469 1 3 210 212 1 l 469 0 l 1097 0 l 1097 163 l 657 163 l 657 769 l 1097 769 z m 469 181 b 184 467 312 181 184 310 b 469 753 184 625 312 753 z "},"…":{"ha":639,"x_min":0,"x_max":0,"o":"m 104 0 b 196 92 155 0 196 41 b 104 184 196 143 155 184 b 13 92 54 184 13 143 b 104 0 13 41 54 0 z m 318 0 b 410 92 369 0 410 41 b 318 184 410 143 369 184 b 226 92 267 184 226 143 b 318 0 226 41 267 0 z m 534 0 b 626 92 585 0 626 41 b 534 184 626 143 585 184 b 442 92 483 184 442 143 b 534 0 442 41 483 0 z "},"":{"ha":1699,"x_min":0,"x_max":0,"o":"m 1045 934 l 657 934 l 489 249 l 627 136 l 758 612 l 758 14 l 758 0 l 939 0 l 939 18 l 942 623 l 1075 136 l 1213 249 z m 489 45 b 562 118 529 45 562 78 b 489 190 562 158 529 190 b 416 118 449 190 416 158 b 489 45 416 78 449 45 z m 321 934 l 38 934 l 33 0 l 215 0 l 218 623 l 351 136 l 489 249 z m 1381 934 l 1213 249 l 1351 136 l 1482 612 l 1482 0 l 1663 0 l 1663 934 z m 1241 51 b 1281 146 1278 66 1296 109 b 1186 185 1265 183 1223 200 b 1146 90 1149 170 1131 127 b 1241 51 1162 53 1204 35 z "},"":{"ha":679,"x_min":0,"x_max":0,"o":"m 540 395 b 390 241 540 311 473 243 l 390 0 l 602 0 l 602 548 l 406 548 b 540 395 481 538 540 473 z m 229 0 l 229 930 l 35 930 l 35 0 z m 477 395 b 390 485 477 444 438 484 b 386 485 388 485 387 485 b 296 395 336 485 296 445 b 386 304 296 345 336 304 b 390 304 387 304 388 304 b 477 395 438 306 477 346 z m 496 609 b 674 787 594 609 674 688 b 496 965 674 885 594 965 b 318 787 397 965 318 885 b 496 609 318 688 397 609 z "},"":{"ha":999,"x_min":0,"x_max":0,"o":"m 860 395 b 709 241 860 311 792 243 l 709 0 l 921 0 l 921 548 l 725 548 b 860 395 801 538 860 473 z m 354 895 b 318 787 331 865 318 827 b 354 679 318 746 331 708 l 354 479 b 296 395 320 466 296 433 b 354 310 296 356 320 323 l 354 0 l 549 0 l 549 930 l 354 930 z m 796 395 b 709 485 796 444 758 484 b 706 485 708 485 707 485 b 615 395 656 485 615 445 b 706 304 615 345 656 304 b 709 304 707 304 708 304 b 796 395 758 306 796 346 z m 815 609 b 993 787 913 609 993 688 b 815 965 993 885 913 965 b 637 787 717 965 637 885 b 815 609 637 688 717 609 z m 229 0 l 229 930 l 35 930 l 35 0 z "},"":{"ha":1103,"x_min":0,"x_max":0,"o":"m 811 562 b 635 496 747 562 686 536 l 619 484 l 619 549 l 434 549 l 434 526 l 420 533 b 296 561 381 552 340 561 b 8 274 137 561 8 432 b 296 -14 8 115 137 -14 b 492 64 369 -14 439 14 l 500 71 l 507 62 b 548 17 519 45 533 30 b 572 -1 556 10 564 4 l 574 -3 l 719 -3 l 718 5 l 732 1 b 811 -14 757 -6 784 -14 b 962 33 865 -14 917 5 b 1054 126 999 56 1031 88 l 1060 135 l 889 192 l 885 189 b 811 161 865 171 838 161 b 712 221 769 161 731 184 l 704 236 l 1093 234 l 1094 242 b 1095 274 1095 252 1095 263 b 811 562 1095 430 968 562 z m 296 141 b 163 274 223 141 163 201 b 296 406 163 347 223 406 b 428 274 369 406 428 347 b 296 141 428 201 369 141 z m 706 312 l 706 321 b 738 379 706 343 718 364 b 811 402 758 394 784 402 b 885 379 839 402 865 394 b 917 321 905 364 917 343 l 917 312 z "},"":{"ha":1017,"x_min":0,"x_max":0,"o":"m 874 30 b 967 125 912 54 944 86 l 973 134 l 799 192 l 795 189 b 721 161 775 171 748 161 b 621 221 679 161 641 184 l 614 235 l 1006 233 l 1007 241 b 1009 274 1008 252 1009 263 b 721 562 1009 433 880 562 b 515 475 643 562 570 531 l 509 468 l 502 475 b 296 562 447 531 374 562 b 8 274 137 562 8 433 b 296 -14 8 115 137 -14 b 502 73 374 -14 447 17 l 509 80 l 515 73 b 721 -14 570 17 643 -14 b 874 30 775 -14 828 1 z m 426 274 b 296 144 426 202 368 144 b 166 274 225 144 166 202 b 296 404 166 345 225 404 b 426 274 368 404 426 345 z m 615 313 l 615 322 b 647 380 615 344 627 365 b 721 403 667 395 693 403 b 795 380 749 403 775 395 b 827 322 815 365 827 344 l 827 313 z "},"ﬁ":{"ha":478,"x_min":0,"x_max":0,"o":"m 532 1017 b 326 1096 477 1068 404 1096 b 120 1017 248 1096 175 1068 b 31 817 62 964 31 893 l 31 0 l 204 0 l 204 817 b 326 923 204 876 259 923 b 448 817 393 923 448 876 l 448 711 l 621 711 l 621 817 b 532 1017 621 893 590 964 z m 460 518 b 363 632 465 576 422 627 b 249 535 305 637 254 594 b 345 421 244 477 287 426 b 460 518 404 416 455 459 z m 441 0 l 441 364 l 268 364 l 268 0 z "},"ﬃ":{"ha":803,"x_min":0,"x_max":0,"o":"m 858 1018 b 651 1097 802 1069 729 1097 b 493 1054 595 1097 540 1082 l 489 1052 l 484 1054 b 326 1097 437 1082 382 1097 b 120 1018 249 1097 175 1069 b 31 818 62 965 31 894 l 31 0 l 204 0 l 204 818 b 326 924 204 876 259 924 b 364 919 339 924 352 922 l 374 916 l 370 907 b 355 818 360 878 355 848 l 355 638 l 348 637 b 262 533 298 628 262 584 b 348 428 262 482 298 438 l 355 427 l 355 0 l 529 0 l 529 818 b 613 919 529 864 563 904 b 651 924 625 922 638 924 b 773 818 718 924 773 876 l 773 711 l 947 711 l 947 818 b 858 1018 947 894 915 965 z m 679 631 b 573 525 621 631 573 583 b 679 418 573 466 621 418 b 786 525 738 418 786 466 b 679 631 786 583 738 631 z m 766 0 l 766 364 l 593 364 l 593 0 z "}}}
